<svg id="SvgjsSvg1011" width="288" height="288" xmlns="http://www.w3.org/2000/svg" version="1.1" xmlns:xlink="http://www.w3.org/1999/xlink" xmlns:svgjs="http://svgjs.com/svgjs"><defs id="SvgjsDefs1012"></defs><g id="SvgjsG1013"><svg xmlns="http://www.w3.org/2000/svg" fill-rule="evenodd" clip-rule="evenodd" image-rendering="optimizeQuality" shape-rendering="geometricPrecision" text-rendering="geometricPrecision" viewBox="0 0 1707 1707" width="288" height="288"><path fill-rule="nonzero" d="m853 0c236 0 449 96 604 250 154 154 250 368 250 603 0 236-96 449-250 604-155 154-368 250-604 250-235 0-449-96-603-250-154-155-250-368-250-604 0-235 96-449 250-603s368-250 603-250zm-398 388c21-21 44-41 68-59 25-18 50-34 76-48 20-10 44-3 54 16 7 14 6 29-1 41-53 101-72 215-55 326 16 108 66 213 149 296 84 84 188 134 297 150 111 17 227-2 329-56l-1-1c20-10 44-3 55 17 7 13 5 29-2 41-14 25-29 49-47 72-18 24-37 47-58 68-120 120-276 179-432 179s-313-59-432-179c-119-119-179-275-179-431 0-157 60-313 179-432zm945-82c-140-139-333-226-547-226-213 0-407 87-547 226-139 140-226 334-226 547 0 214 87 407 226 547 140 140 334 227 547 227 214 0 407-87 547-227s227-333 227-547c0-213-87-407-227-547z" fill="#2c649c" class="color000 svgShape"></path></svg></g></svg>