<svg xmlns="http://www.w3.org/2000/svg" xmlns:xlink="http://www.w3.org/1999/xlink" xmlns:svgjs="http://svgjs.com/svgjs" id="SvgjsSvg1001" width="288" height="288" version="1.1"><defs id="SvgjsDefs1002" fill="#5181b8"/><g id="SvgjsG1008"><svg xmlns="http://www.w3.org/2000/svg" enable-background="new 0 0 32 32" viewBox="0 0 32 32" width="288" height="288"><path fill="#5181b8" d="m30.88 14.05c-.85-6.68-6.25-12.08-12.93-12.93-9.81-1.24-18.07 7.02-16.83 16.83.85 6.68 6.25 12.08 12.93 12.93 9.81 1.24 18.07-7.02 16.83-16.83zm-11.73 2.27 3.21 3.22c.86.86.77 2.29-.25 3.04-.81.58-1.94.41-2.64-.29l-3.15-3.14c-.18-.1801-.46-.1801-.64 0l-3.15 3.14c-.7.7-1.83.87-2.64.29-1.02-.75-1.11-2.18-.25-3.04l3.21-3.22c.1801-.18.1801-.46 0-.64l-3.14-3.15c-.7-.7-.87-1.83-.29-2.64.75-1.02 2.18-1.11 3.04-.25l3.22 3.21c.18.1801.46.1801.64 0l3.15-3.14c.7-.7 1.83-.87 2.64-.29 1.02.75 1.11 2.18.25 3.04l-3.21 3.22c-.18.18-.18.46 0 .64z" class="color00dbbb svgShape"/></svg></g></svg>