<?xml version="1.0" standalone="no"?>
<!DOCTYPE svg PUBLIC "-//W3C//DTD SVG 20010904//EN"
 "http://www.w3.org/TR/2001/REC-SVG-20010904/DTD/svg10.dtd">
<svg version="1.0" xmlns="http://www.w3.org/2000/svg"
 width="500.000000pt" height="500.000000pt" viewBox="0 0 500.000000 500.000000"
 preserveAspectRatio="xMidYMid meet">

<g transform="translate(0.000000,500.000000) scale(0.100000,-0.100000)"
fill="#000000" stroke="none">
<path d="M534 4175 c-76 -91 -140 -169 -142 -173 -1 -5 164 -150 368 -323 203
-172 370 -317 370 -320 0 -4 -33 -32 -74 -62 -244 -184 -526 -457 -708 -685
-79 -100 -79 -124 0 -224 79 -98 252 -287 343 -373 557 -524 1087 -805 1631
-864 322 -36 680 30 1023 187 l110 50 50 -42 c28 -23 218 -185 423 -359 204
-174 376 -318 382 -320 9 -2 290 321 290 334 0 4 -602 520 -717 615 l-26 20
109 84 c251 194 507 444 686 668 79 100 79 124 0 224 -139 175 -370 409 -559
567 -477 398 -944 619 -1415 670 -324 36 -679 -30 -1027 -188 l-113 -52 -51
44 c-29 24 -219 185 -422 358 -204 173 -375 318 -381 322 -6 4 -68 -62 -150
-158z m2206 -530 c378 -58 762 -244 1163 -564 130 -103 448 -411 542 -523 l47
-58 -47 -57 c-146 -175 -567 -562 -712 -654 l-31 -20 -253 216 c-166 141 -253
222 -252 233 1 9 11 49 24 87 29 93 32 279 5 375 -23 83 -76 190 -129 258
-156 204 -432 318 -687 284 -88 -12 -230 -56 -275 -86 -22 -14 -31 -8 -224
156 -111 93 -201 174 -201 178 0 9 188 85 290 116 70 22 237 59 305 67 82 10
349 6 435 -8z m-1184 -642 c190 -162 253 -221 248 -232 -50 -117 -64 -327 -30
-451 80 -291 325 -500 636 -542 144 -19 278 6 461 86 12 5 71 -39 218 -164
111 -95 201 -174 199 -176 -11 -10 -237 -95 -313 -117 -191 -55 -246 -62 -475
-62 -186 0 -229 3 -321 23 -364 78 -709 253 -1081 550 -131 104 -448 411 -543
525 l-47 57 48 58 c78 93 311 327 414 417 128 111 302 245 318 245 7 0 128
-98 268 -217z m1088 11 c190 -49 359 -220 397 -402 13 -65 7 -238 -9 -254 -7
-7 -122 85 -385 308 -207 176 -374 321 -371 323 2 2 32 12 66 22 80 23 220 24
302 3z m-213 -755 c151 -129 277 -238 279 -244 8 -18 -111 -43 -204 -44 -164
-2 -285 48 -402 164 -78 78 -125 160 -145 253 -12 58 -8 229 5 251 5 7 39 -15
99 -67 51 -43 216 -184 368 -313z"/>
</g>
</svg>
