<svg id="SvgjsSvg1016" width="288" height="288" xmlns="http://www.w3.org/2000/svg" version="1.1" xmlns:xlink="http://www.w3.org/1999/xlink" xmlns:svgjs="http://svgjs.com/svgjs"><defs id="SvgjsDefs1017"></defs><g id="SvgjsG1018"><svg xmlns="http://www.w3.org/2000/svg" data-name="Layer 1" viewBox="0 0 24 24" width="288" height="288"><path d="M12 17.75a5.75 5.75 0 115.75-5.75 5.757 5.757 0 01-5.75 5.75zm0-10a4.25 4.25 0 104.25 4.25 4.255 4.255 0 00-4.25-4.25zM12 4.75a.75.75 0 01-.75-.75v-2a.75.75 0 011.5 0v2a.75.75 0 01-.75.75zM17.657 7.093a.75.75 0 01-.53-1.28l1.414-1.413a.75.75 0 011.059 1.059l-1.412 1.415a.749.749 0 01-.531.219zM22 12.75h-2a.75.75 0 010-1.5h2a.75.75 0 010 1.5zM19.071 19.821a.749.749 0 01-.53-.219l-1.414-1.415a.75.75 0 011.061-1.061l1.412 1.415a.75.75 0 01-.531 1.28zM12 22.75a.75.75 0 01-.75-.75v-2a.75.75 0 011.5 0v2a.75.75 0 01-.75.75zM4.929 19.821a.75.75 0 01-.531-1.28l1.415-1.415a.75.75 0 011.06 1.061l-1.414 1.413a.747.747 0 01-.53.221zM4 12.75h-2a.75.75 0 010-1.5h2a.75.75 0 010 1.5zM6.343 7.093a.746.746 0 01-.53-.219l-1.413-1.415a.75.75 0 011.059-1.059l1.414 1.413a.75.75 0 01-.53 1.28z" fill="#2c649c" class="color000 svgShape"></path><path d="m12 17.75a.75.75 0 0 1 -.75-.75v-10a.75.75 0 0 1 1.5 0v10a.75.75 0 0 1 -.75.75z" fill="#2c649c" class="color000 svgShape"></path><path d="M12 14.25h-4.78a.75.75 0 110-1.5h4.78a.75.75 0 010 1.5zM12 11.25h-4.78a.75.75 0 110-1.5h4.78a.75.75 0 010 1.5z" fill="#2c649c" class="color000 svgShape"></path></svg></g></svg>