<!-- icon666.com - MILLIONS vector ICONS FREE --><svg id="Line_copy" viewBox="0 0 64 64" xmlns="http://www.w3.org/2000/svg" xmlns:xlink="http://www.w3.org/1999/xlink" data-name="Line copy"><linearGradient id="linear-gradient" gradientUnits="userSpaceOnUse" x1="4.01" x2="59.99" y1="32" y2="32"><stop offset="0" stop-color="#00c0ff"></stop><stop offset="1" stop-color="#5558ff"></stop></linearGradient><path d="m32 4a28 28 0 1 0 28 28 28 28 0 0 0 -28-28zm0 53a25 25 0 1 1 25-25 25 25 0 0 1 -25 25zm11-25a2.71 2.71 0 0 1 -1.38 2.37l-18.89 10.81a1.42 1.42 0 0 1 -.74.2 1.5 1.5 0 0 1 -.74-2.8l18.51-10.58-18.51-10.58a1.5 1.5 0 0 1 1.48-2.6l18.93 10.81a2.71 2.71 0 0 1 1.34 2.37z" fill="url(#linear-gradient)"></path></svg>