<svg id="SvgjsSvg1001" width="288" height="288" xmlns="http://www.w3.org/2000/svg" version="1.1" xmlns:xlink="http://www.w3.org/1999/xlink" xmlns:svgjs="http://svgjs.com/svgjs"><defs id="SvgjsDefs1002"></defs><g id="SvgjsG1008"><svg xmlns="http://www.w3.org/2000/svg" enable-background="new 0 0 128 128" viewBox="0 0 128 128" width="288" height="288"><linearGradient id="a" x1="64" x2="64" y1="12" y2="116" gradientUnits="userSpaceOnUse"><stop offset="0" stop-color="#4285b4" class="stopColorf44369 svgShape"></stop><stop offset="1" stop-color="#3e3b92" class="stopColor3e3b92 svgShape"></stop></linearGradient><path fill="url(#a)" d="m48 116h-16c-4.4 0-8-3.6-8-8v-88c0-4.4 3.6-8 8-8h16c4.4 0 8 3.6 8 8v88c0 4.4-3.6 8-8 8zm-16-96v88h16v-88zm64 96h-16c-4.4 0-8-3.6-8-8v-88c0-4.4 3.6-8 8-8h16c4.4 0 8 3.6 8 8v88c0 4.4-3.6 8-8 8zm-16-96v88h16v-88z"></path></svg></g></svg>