<!-- icon666.com - MILLIONS vector ICONS FREE --><svg viewBox="0 0 32 32" xmlns="http://www.w3.org/2000/svg" xmlns:xlink="http://www.w3.org/1999/xlink"><linearGradient id="linear-gradient" gradientUnits="userSpaceOnUse" x1="-3.55" x2="28.79" y1="3.49" y2="35.04"><stop offset="0" stop-color="#29abe2"></stop><stop offset="1" stop-color="#2e3192"></stop></linearGradient><g id="play"><path d="m5 30c-1.16 0-1-1.27-1-2v-23.87c0-.73-.19-1.86.75-2.1.63-.16 1.4.49 1.9.78l17.42 10.3 2.87 1.69c.77.46 1.63 1.25.55 2.07a51.71 51.71 0 0 1 -5.38 3.18c-5.44 3.21-10.8 6.6-16.33 9.65a1.56 1.56 0 0 1 -.78.3zm1-25.25v22.5l16.68-9.86 2.32-1.39-16.64-9.85z" fill="url(#linear-gradient)"></path></g></svg>