<svg xmlns="http://www.w3.org/2000/svg" xmlns:xlink="http://www.w3.org/1999/xlink" id="Layer_1" enable-background="new 0 0 512 512" viewBox="0 0 512 512"><linearGradient id="SVGID_1_" gradientUnits="userSpaceOnUse" x1="256" x2="256" y1="0" y2="512" fill="#000000"><stop offset="0" stop-color="#5181b8" fill="#000000"/><stop offset="1" stop-color="#5181b8" fill="#000000"/></linearGradient><path clip-rule="evenodd" d="m256 512c-141.159 0-256-114.842-256-256s114.841-256 256-256 256 114.841 256 256-114.841 256-256 256zm164.965-256c0-90.963-74.003-164.966-164.965-164.966-90.963 0-164.965 74.003-164.965 164.966 0 65.023 38.378 124.173 97.774 150.694 1.754.782 3.587 1.153 5.392 1.153 5.064 0 9.9-2.922 12.098-7.845 2.982-6.678-.014-14.508-6.692-17.49-49.867-22.265-82.089-71.925-82.089-126.511 0-76.36 62.123-138.483 138.483-138.483s138.483 62.123 138.483 138.483c0 54.588-32.222 104.246-82.088 126.51-6.678 2.982-9.674 10.812-6.692 17.49 2.981 6.678 10.811 9.674 17.49 6.692 59.394-26.521 97.771-85.671 97.771-150.693zm-119.343 4.577c-2.586 2.586-5.974 3.879-9.363 3.879-3.388 0-6.777-1.293-9.363-3.879l-13.655-13.655v160.802c0 7.312-5.929 13.241-13.242 13.241-7.312 0-13.241-5.929-13.241-13.241v-160.802l-13.654 13.655c-5.172 5.172-13.555 5.172-18.727 0s-5.172-13.555 0-18.727l36.259-36.259c5.172-5.172 13.555-5.172 18.727 0l36.259 36.259c5.172 5.172 5.172 13.555 0 18.727z" fill="url(#SVGID_1_)" fill-rule="evenodd"/></svg>